<?xml version="1.0" encoding="utf-8"?>
<!-- Generator: Adobe Illustrator 23.0.1, SVG Export Plug-In . SVG Version: 6.00 Build 0)  -->
<svg version="1.1" id="Слой_1" xmlns="http://www.w3.org/2000/svg" xmlns:xlink="http://www.w3.org/1999/xlink" x="0px" y="0px"
	 viewBox="0 0 63.5 43.7" style="enable-background:new 0 0 63.5 43.7;" xml:space="preserve">
<style type="text/css">
	.st0{fill:#313752;}
	.st1{fill:#E7A344;}
</style>
<path class="st0" d="M56.9,11.3c-2-2.3-5.1-3.8-9.4-4.4l-2.7-0.4c-0.1,0-0.3,0-0.4,0.1l-7.9,5.1c-0.1,0.1-0.2,0.2-0.3,0.4l-4,26.7
	c0,0.3,0.2,0.6,0.5,0.7l4.5,0.7c0.3,0,0.6-0.2,0.7-0.5l1.3-8.9c0-0.3,0.4-0.5,0.7-0.5l4,0.6c4.3,0.6,7.7,0,10.3-1.8
	c2.6-1.8,4.2-4.8,4.8-8.8C59.6,16.6,58.9,13.6,56.9,11.3z M50.3,24.5c-1.4,1-3.3,1.4-5.6,1l-4-0.6c-0.3,0-0.5-0.4-0.5-0.7l1.8-12.1
	c0-0.3,0.4-0.5,0.7-0.5l4,0.6c2.3,0.3,4,1.2,5,2.4c1.1,1.3,1.4,2.9,1.1,5C52.6,21.9,51.7,23.5,50.3,24.5z"/>
<path class="st1" d="M40.4,5.9l-2.6-0.4c-0.3,0-0.6,0.2-0.7,0.5l-0.3,2.3c-0.1,0.5,0.5,0.9,0.9,0.6l2.9-1.9
	C41.1,6.6,41,5.9,40.4,5.9z"/>
<path class="st0" d="M16.6,38.8c0.1,0,0.3,0,0.4-0.1l6.6-4.3l-2.3-0.3c-0.1,0-0.3,0-0.4,0.1l-6.6,4.3L16.6,38.8z"/>
<polygon class="st0" points="32.7,11.9 33.4,6.6 23.2,5 16.5,9.5 "/>
<path class="st0" d="M21,39.5l6.8,1c0.3,0,0.6-0.2,0.7-0.5l0.6-4.1c0-0.3-0.2-0.6-0.5-0.7l-2.1-0.3c-0.1,0-0.3,0-0.4,0.1l-5.3,3.4
	C20.3,38.7,20.4,39.4,21,39.5z"/>
<path class="st0" d="M9,14.3c-0.1,0.1-0.2,0.2-0.3,0.4l-0.4,2.7l-0.8,5.3l-1.4,9.1l-0.7,4.7c0,0.3,0.2,0.6,0.5,0.7l5.1,0.8l0.7,0.1
	l5.5-3.6c0.5-0.3,0.3-1-0.2-1.1l-4.5-0.7c-0.3,0-0.5-0.4-0.5-0.7l1.2-7.9c0-0.3,0.4-0.5,0.7-0.5l11.8,1.8c0.3,0,0.6-0.2,0.7-0.5
	l0.6-4.1c0-0.3-0.2-0.6-0.5-0.7l-11.8-1.8c-0.3,0-0.5-0.4-0.5-0.7l0.9-6.1c0.1-0.5-0.5-0.9-0.9-0.6L9,14.3z"/>
<path class="st1" d="M19.3,5.5c0.5-0.3,0.3-1-0.2-1.1l-3-0.4L11,3.2c-0.3,0-0.6,0.2-0.7,0.5L9.6,8.4l-0.4,2.4
	c-0.1,0.5,0.5,0.9,0.9,0.6L19.3,5.5z"/>
</svg>
