<?xml version="1.0" encoding="utf-8"?>
<!-- Generator: Adobe Illustrator 23.0.1, SVG Export Plug-In . SVG Version: 6.00 Build 0)  -->
<svg version="1.1" id="Слой_1" xmlns="http://www.w3.org/2000/svg" xmlns:xlink="http://www.w3.org/1999/xlink" x="0px" y="0px"
	 viewBox="0 0 200 43.7" style="enable-background:new 0 0 200 43.7;" xml:space="preserve">
<style type="text/css">
	.st0{fill:#313752;}
	.st1{fill:#E7A344;}
</style>
<path class="st0" d="M40.6,39.1l-3.5-10h2.4l2.5,8h0.2l2.5-8h2.4l-3.5,10H40.6z"/>
<path class="st0" d="M54.4,39.3c-1.7,0-3-0.4-4-1.3C49.4,37,49,35.7,49,34.1c0-1.6,0.4-2.9,1.2-3.8c0.8-0.9,1.9-1.4,3.4-1.4
	c1.4,0,2.5,0.4,3.2,1.2c0.8,0.8,1.1,2,1.1,3.6c0,0.5,0,0.9-0.1,1.3h-7.2v-1.7h5c0-0.8-0.2-1.3-0.6-1.8c-0.4-0.4-0.9-0.6-1.6-0.6
	c-0.7,0-1.3,0.3-1.7,0.8S51.2,33,51.2,34c0,1,0.3,1.8,0.9,2.3c0.6,0.5,1.4,0.8,2.5,0.8c0.4,0,0.9,0,1.3-0.1c0.4,0,0.9-0.1,1.3-0.2
	l0.2,2.1c-0.6,0.1-1.2,0.2-1.7,0.2C55.2,39.2,54.7,39.3,54.4,39.3z"/>
<path class="st0" d="M60.6,39.1v-10h2.1l0.2,2.1v7.9H60.6z M66.6,39.1v-6.1c0-0.6-0.1-1.1-0.4-1.4c-0.3-0.3-0.7-0.5-1.2-0.5
	c-1.4,0-2.1,0.9-2.1,2.8l-0.6-2.9h0.8c0.1-0.7,0.3-1.2,0.7-1.5c0.4-0.3,1-0.5,1.8-0.5c1.1,0,1.9,0.3,2.4,1c0.6,0.6,0.9,1.5,0.9,2.7
	v6.5H66.6z"/>
<path class="st0" d="M71,31.1v-2.1h9.2v2.1H71z M73.4,34.3v-8.2h2.3v8.2H73.4z M78,39.3c-1.6,0-2.8-0.3-3.6-1
	c-0.7-0.7-1.1-1.7-1.1-3.2v-1.5h2.3v1.3c0,0.8,0.2,1.3,0.6,1.7c0.4,0.4,1,0.5,1.9,0.5c0.3,0,0.6,0,1-0.1c0.3,0,0.7-0.1,1.2-0.1
	l0.2,2.1c-0.4,0.1-0.8,0.1-1.2,0.2C78.9,39.2,78.5,39.3,78,39.3z"/>
<path class="st0" d="M113.1,27v-2.1h3V27H113.1z M119.5,39.3c-1.2,0-2.1-0.3-2.6-1c-0.5-0.7-0.8-1.7-0.8-3.2V24.9h2.3v10
	c0,0.5,0,0.8,0.1,1.1c0.1,0.3,0.3,0.5,0.5,0.6c0.3,0.1,0.7,0.2,1.2,0.2c0.5,0,1.2-0.1,2.1-0.4l0.3,2.3c-0.5,0.1-1,0.2-1.5,0.3
	C120.5,39.2,120,39.3,119.5,39.3z"/>
<path class="st1" d="M127.8,39.3c-1.1,0-1.9-0.3-2.5-0.8c-0.6-0.5-0.9-1.2-0.9-2.2c0-1.1,0.4-1.9,1.2-2.5c0.8-0.6,1.9-0.9,3.3-0.9
	c0.6,0,1.1,0,1.5,0.1c0.4,0.1,0.8,0.2,1.2,0.3l-0.4,1.7c-0.4-0.1-0.8-0.1-1.1-0.2c-0.4,0-0.7,0-1.1,0c-1.5,0-2.2,0.4-2.2,1.3
	c0,0.4,0.1,0.7,0.4,0.9c0.3,0.2,0.6,0.3,1.1,0.3c0.6,0,1.1-0.1,1.5-0.3c0.4-0.2,0.7-0.5,0.9-0.8c0.2-0.3,0.3-0.7,0.3-1v-0.8l0.5,2.6
	h-0.8l0.3-0.3c0,0.6-0.1,1.1-0.4,1.4c-0.3,0.4-0.6,0.7-1.1,0.9C128.9,39.2,128.4,39.3,127.8,39.3z M131.2,39.2l-0.2-3l-0.1-1.1v-2.2
	c0-0.6-0.2-1-0.7-1.3c-0.5-0.3-1.1-0.4-2.1-0.4l-2.5-0.1l0.2-2.1l2.1,0c1.7,0,3,0.4,3.9,1.1s1.3,1.7,1.3,3V37l1.5,0.2v1.9
	L131.2,39.2z"/>
<path class="st0" d="M135.5,31.1v-2.1h9.2v2.1H135.5z M137.9,34.3v-8.2h2.3v8.2H137.9z M142.6,39.3c-1.6,0-2.8-0.3-3.6-1
	c-0.7-0.7-1.1-1.7-1.1-3.2v-1.5h2.3v1.3c0,0.8,0.2,1.3,0.6,1.7s1,0.5,1.9,0.5c0.3,0,0.6,0,1-0.1c0.3,0,0.7-0.1,1.2-0.1l0.2,2.1
	c-0.4,0.1-0.8,0.1-1.2,0.2C143.5,39.2,143,39.3,142.6,39.3z"/>
<path class="st0" d="M146.8,33.1v-2h9.4v2H146.8z M149.9,39.1v-9.1c0-3.5,1.6-5.2,4.9-5.2c0.7,0,1.5,0.1,2.2,0.2l-0.2,2.1
	c-0.4-0.1-0.8-0.1-1.1-0.1c-0.3,0-0.6,0-0.9,0c-1.7,0-2.5,1-2.5,2.9v9.2H149.9z"/>
<path class="st0" d="M163.2,39.3c-1.4,0-2.5-0.5-3.3-1.4c-0.8-0.9-1.2-2.2-1.2-3.8c0-1.7,0.4-2.9,1.2-3.8c0.8-0.9,1.9-1.4,3.3-1.4
	c1.4,0,2.5,0.5,3.3,1.4c0.8,0.9,1.2,2.2,1.2,3.8c0,1.6-0.4,2.9-1.2,3.8C165.7,38.8,164.6,39.3,163.2,39.3z M163.2,37.1
	c0.6,0,1.1-0.3,1.5-0.8c0.3-0.5,0.5-1.3,0.5-2.2c0-1-0.2-1.7-0.5-2.2c-0.3-0.5-0.8-0.8-1.5-0.8c-0.6,0-1.1,0.3-1.5,0.8
	s-0.5,1.3-0.5,2.2c0,1,0.2,1.7,0.5,2.2C162.1,36.8,162.6,37.1,163.2,37.1z"/>
<path class="st0" d="M169.5,39.1v-2h6.9v2H169.5z M169.9,31v-2h3.6l0.2,2H169.9z M171.7,39.1v-10h1.9l0.4,2.9v7.1H171.7z M174,34.8
	l-0.6-3.3h0.8c0.1-1.7,1-2.6,2.6-2.6c1,0,1.7,0.3,2.2,1c0.5,0.7,0.7,1.6,0.7,3h-2.3c0-0.6-0.1-1.1-0.3-1.4c-0.2-0.3-0.6-0.4-1.1-0.4
	c-0.7,0-1.3,0.3-1.6,1C174.2,32.6,174,33.6,174,34.8z"/>
<path class="st0" d="M181.1,39.1v-10h2.1l0.2,2.1v7.9H181.1z M184.9,39.1v-7.3c0-0.6-0.2-0.8-0.7-0.8c-0.5,0-0.8,0.4-0.8,1.2
	l-0.6-1.8h0.7c0.1-1,0.6-1.4,1.6-1.4c0.5,0,0.9,0.2,1.2,0.5c0.3,0.4,0.4,0.9,0.4,1.6v8H184.9z M188.2,39.1V32c0-0.7-0.2-1-0.7-1
	c-0.5,0-0.8,0.4-0.8,1.2l-0.7-1.8h0.8c0-0.4,0.2-0.8,0.5-1c0.3-0.3,0.7-0.4,1.2-0.4c0.7,0,1.2,0.2,1.5,0.6c0.3,0.4,0.5,1,0.5,1.8
	v7.8H188.2z"/>
<circle class="st1" cx="130.1" cy="25" r="1.6"/>
<path class="st0" d="M105.6,7.6c-2.3-2-5.6-3-9.9-3h-2.8c-0.1,0-0.3,0.1-0.4,0.1l-7,6.2c-0.1,0.1-0.2,0.3-0.2,0.4v27
	c0,0.3,0.3,0.6,0.6,0.6h4.6c0.3,0,0.6-0.3,0.6-0.6v-9c0-0.3,0.3-0.6,0.6-0.6h4c4.3,0,7.6-1.1,9.9-3.3c2.3-2.2,3.5-5.3,3.5-9.4
	C109.1,12.5,107.9,9.6,105.6,7.6z M101.1,21.7c-1.2,1.2-3,1.8-5.3,1.8h-4c-0.3,0-0.6-0.3-0.6-0.6V10.6c0-0.3,0.3-0.6,0.6-0.6h4
	c2.3,0,4.1,0.5,5.3,1.6c1.2,1.1,1.9,2.7,1.9,4.7C102.9,18.7,102.3,20.4,101.1,21.7z"/>
<path class="st1" d="M88.5,4.7h-2.6c-0.3,0-0.6,0.3-0.6,0.6v2.3c0,0.5,0.6,0.8,1,0.4l2.6-2.3C89.3,5.3,89.1,4.7,88.5,4.7z"/>
<path class="st0" d="M20.9,39.1c0.1,0,0.3-0.1,0.4-0.1l5.9-5.2h-2.3c-0.1,0-0.3,0.1-0.4,0.1l-5.9,5.2H20.9z"/>
<polygon class="st0" points="32.8,10 32.8,4.7 22.4,4.7 16.4,10 "/>
<path class="st0" d="M25.3,39.1h6.9c0.3,0,0.6-0.3,0.6-0.6v-4.2c0-0.3-0.3-0.6-0.6-0.6H30c-0.1,0-0.3,0.1-0.4,0.1L24.9,38
	C24.5,38.4,24.7,39.1,25.3,39.1z"/>
<path class="st0" d="M9.7,16c-0.1,0.1-0.2,0.3-0.2,0.4v2.7v5.4v9.2v4.8c0,0.3,0.3,0.6,0.6,0.6h5.2H16l4.9-4.3c0.4-0.4,0.2-1-0.4-1
	h-4.6c-0.3,0-0.6-0.3-0.6-0.6v-8c0-0.3,0.3-0.6,0.6-0.6h11.9c0.3,0,0.6-0.3,0.6-0.6v-4.2c0-0.3-0.3-0.6-0.6-0.6H15.9
	c-0.3,0-0.6-0.3-0.6-0.6v-6.2c0-0.5-0.6-0.8-1-0.4L9.7,16z"/>
<path class="st1" d="M18.6,5.7c0.4-0.4,0.2-1-0.4-1h-3h-5.2c-0.3,0-0.6,0.3-0.6,0.6V10v2.5c0,0.5,0.6,0.8,1,0.4L18.6,5.7z"/>
</svg>
